<mxfile host="app.diagrams.net" modified="2021-09-01T11:33:11.363Z" agent="5.0 (Windows NT 10.0; Win64; x64) AppleWebKit/537.36 (KHTML, like Gecko) Chrome/92.0.4515.159 Safari/537.36" etag="DRbTTx9rq0ZowdC0YYZi" version="15.0.3" type="github">
  <diagram id="Q7HjLei_84k0g9l5AeFT" name="Page-1">
    <mxGraphModel dx="868" dy="482" grid="1" gridSize="10" guides="1" tooltips="1" connect="1" arrows="1" fold="1" page="1" pageScale="1" pageWidth="850" pageHeight="1100" math="0" shadow="0">
      <root>
        <mxCell id="0" />
        <mxCell id="1" parent="0" />
        <mxCell id="Pwe0kTY_ibTt96MhdFbI-9" value="Address" style="swimlane;fontStyle=1;align=center;verticalAlign=top;childLayout=stackLayout;horizontal=1;startSize=26;horizontalStack=0;resizeParent=1;resizeParentMax=0;resizeLast=0;collapsible=1;marginBottom=0;" parent="1" vertex="1">
          <mxGeometry x="70" y="10" width="200" height="150" as="geometry" />
        </mxCell>
        <mxCell id="Pwe0kTY_ibTt96MhdFbI-10" value="+ street: String&#xa;+ city: String&#xa;+ state: String" style="text;strokeColor=none;fillColor=none;align=left;verticalAlign=top;spacingLeft=4;spacingRight=4;overflow=hidden;rotatable=0;points=[[0,0.5],[1,0.5]];portConstraint=eastwest;" parent="Pwe0kTY_ibTt96MhdFbI-9" vertex="1">
          <mxGeometry y="26" width="200" height="54" as="geometry" />
        </mxCell>
        <mxCell id="Pwe0kTY_ibTt96MhdFbI-11" value="" style="line;strokeWidth=1;fillColor=none;align=left;verticalAlign=middle;spacingTop=-1;spacingLeft=3;spacingRight=3;rotatable=0;labelPosition=right;points=[];portConstraint=eastwest;" parent="Pwe0kTY_ibTt96MhdFbI-9" vertex="1">
          <mxGeometry y="80" width="200" height="8" as="geometry" />
        </mxCell>
        <mxCell id="Pwe0kTY_ibTt96MhdFbI-12" value="+ getAddressdetail(): String&#xa;+ updateAddressDetail&#xa;   (addressDetail: String): void" style="text;strokeColor=none;fillColor=none;align=left;verticalAlign=top;spacingLeft=4;spacingRight=4;overflow=hidden;rotatable=0;points=[[0,0.5],[1,0.5]];portConstraint=eastwest;" parent="Pwe0kTY_ibTt96MhdFbI-9" vertex="1">
          <mxGeometry y="88" width="200" height="62" as="geometry" />
        </mxCell>
        <mxCell id="Pwe0kTY_ibTt96MhdFbI-13" value="Business partner" style="swimlane;fontStyle=1;align=center;verticalAlign=top;childLayout=stackLayout;horizontal=1;startSize=26;horizontalStack=0;resizeParent=1;resizeParentMax=0;resizeLast=0;collapsible=1;marginBottom=0;" parent="1" vertex="1">
          <mxGeometry x="360" y="10" width="160" height="130" as="geometry" />
        </mxCell>
        <mxCell id="Pwe0kTY_ibTt96MhdFbI-14" value="+ id: int &#xa;+ address: Address&#xa;+ contact: Contact" style="text;strokeColor=none;fillColor=none;align=left;verticalAlign=top;spacingLeft=4;spacingRight=4;overflow=hidden;rotatable=0;points=[[0,0.5],[1,0.5]];portConstraint=eastwest;" parent="Pwe0kTY_ibTt96MhdFbI-13" vertex="1">
          <mxGeometry y="26" width="160" height="54" as="geometry" />
        </mxCell>
        <mxCell id="Pwe0kTY_ibTt96MhdFbI-15" value="" style="line;strokeWidth=1;fillColor=none;align=left;verticalAlign=middle;spacingTop=-1;spacingLeft=3;spacingRight=3;rotatable=0;labelPosition=right;points=[];portConstraint=eastwest;" parent="Pwe0kTY_ibTt96MhdFbI-13" vertex="1">
          <mxGeometry y="80" width="160" height="8" as="geometry" />
        </mxCell>
        <mxCell id="Pwe0kTY_ibTt96MhdFbI-16" value="+ getContact(): Contact&#xa;+ getAddress(): Address" style="text;strokeColor=none;fillColor=none;align=left;verticalAlign=top;spacingLeft=4;spacingRight=4;overflow=hidden;rotatable=0;points=[[0,0.5],[1,0.5]];portConstraint=eastwest;" parent="Pwe0kTY_ibTt96MhdFbI-13" vertex="1">
          <mxGeometry y="88" width="160" height="42" as="geometry" />
        </mxCell>
        <mxCell id="Tv9C8EbDIbSl4ck7259P-1" value="contact" style="swimlane;fontStyle=1;align=center;verticalAlign=top;childLayout=stackLayout;horizontal=1;startSize=26;horizontalStack=0;resizeParent=1;resizeParentMax=0;resizeLast=0;collapsible=1;marginBottom=0;" parent="1" vertex="1">
          <mxGeometry x="610" width="170" height="150" as="geometry" />
        </mxCell>
        <mxCell id="Tv9C8EbDIbSl4ck7259P-2" value="+ name:  String&#xa;+ phone: String&#xa;+ email: String" style="text;strokeColor=none;fillColor=none;align=left;verticalAlign=top;spacingLeft=4;spacingRight=4;overflow=hidden;rotatable=0;points=[[0,0.5],[1,0.5]];portConstraint=eastwest;" parent="Tv9C8EbDIbSl4ck7259P-1" vertex="1">
          <mxGeometry y="26" width="170" height="54" as="geometry" />
        </mxCell>
        <mxCell id="Tv9C8EbDIbSl4ck7259P-3" value="" style="line;strokeWidth=1;fillColor=none;align=left;verticalAlign=middle;spacingTop=-1;spacingLeft=3;spacingRight=3;rotatable=0;labelPosition=right;points=[];portConstraint=eastwest;" parent="Tv9C8EbDIbSl4ck7259P-1" vertex="1">
          <mxGeometry y="80" width="170" height="8" as="geometry" />
        </mxCell>
        <mxCell id="Tv9C8EbDIbSl4ck7259P-4" value="+ getContactDetails(): string&#xa;+ updateContactDetails&#xa;(contactDetails): void" style="text;strokeColor=none;fillColor=none;align=left;verticalAlign=top;spacingLeft=4;spacingRight=4;overflow=hidden;rotatable=0;points=[[0,0.5],[1,0.5]];portConstraint=eastwest;" parent="Tv9C8EbDIbSl4ck7259P-1" vertex="1">
          <mxGeometry y="88" width="170" height="62" as="geometry" />
        </mxCell>
        <mxCell id="Tv9C8EbDIbSl4ck7259P-5" value="product" style="swimlane;fontStyle=1;align=center;verticalAlign=top;childLayout=stackLayout;horizontal=1;startSize=26;horizontalStack=0;resizeParent=1;resizeParentMax=0;resizeLast=0;collapsible=1;marginBottom=0;" parent="1" vertex="1">
          <mxGeometry x="50" y="240" width="160" height="210" as="geometry" />
        </mxCell>
        <mxCell id="Tv9C8EbDIbSl4ck7259P-6" value="+ id: int&#xa;+ name: String&#xa;   category: String&#xa;+ salePrice: float&#xa;+ quantity: int&#xa;+ active: boolean" style="text;strokeColor=none;fillColor=none;align=left;verticalAlign=top;spacingLeft=4;spacingRight=4;overflow=hidden;rotatable=0;points=[[0,0.5],[1,0.5]];portConstraint=eastwest;" parent="Tv9C8EbDIbSl4ck7259P-5" vertex="1">
          <mxGeometry y="26" width="160" height="94" as="geometry" />
        </mxCell>
        <mxCell id="Tv9C8EbDIbSl4ck7259P-7" value="" style="line;strokeWidth=1;fillColor=none;align=left;verticalAlign=middle;spacingTop=-1;spacingLeft=3;spacingRight=3;rotatable=0;labelPosition=right;points=[];portConstraint=eastwest;" parent="Tv9C8EbDIbSl4ck7259P-5" vertex="1">
          <mxGeometry y="120" width="160" height="8" as="geometry" />
        </mxCell>
        <mxCell id="Tv9C8EbDIbSl4ck7259P-8" value="+ getProfitOfLoss(): float&#xa;+ active(): void&#xa;+ deactivate(): void&#xa;+ is Bolowthreshold():&#xa;booleang&#xa;" style="text;strokeColor=none;fillColor=none;align=left;verticalAlign=top;spacingLeft=4;spacingRight=4;overflow=hidden;rotatable=0;points=[[0,0.5],[1,0.5]];portConstraint=eastwest;" parent="Tv9C8EbDIbSl4ck7259P-5" vertex="1">
          <mxGeometry y="128" width="160" height="82" as="geometry" />
        </mxCell>
        <mxCell id="Tv9C8EbDIbSl4ck7259P-9" value="Customer" style="swimlane;fontStyle=1;align=center;verticalAlign=top;childLayout=stackLayout;horizontal=1;startSize=26;horizontalStack=0;resizeParent=1;resizeParentMax=0;resizeLast=0;collapsible=1;marginBottom=0;" parent="1" vertex="1">
          <mxGeometry x="700" y="300" width="160" height="100" as="geometry" />
        </mxCell>
        <mxCell id="Tv9C8EbDIbSl4ck7259P-10" value="+ transactionCount: int" style="text;strokeColor=none;fillColor=none;align=left;verticalAlign=top;spacingLeft=4;spacingRight=4;overflow=hidden;rotatable=0;points=[[0,0.5],[1,0.5]];portConstraint=eastwest;" parent="Tv9C8EbDIbSl4ck7259P-9" vertex="1">
          <mxGeometry y="26" width="160" height="26" as="geometry" />
        </mxCell>
        <mxCell id="Tv9C8EbDIbSl4ck7259P-11" value="" style="line;strokeWidth=1;fillColor=none;align=left;verticalAlign=middle;spacingTop=-1;spacingLeft=3;spacingRight=3;rotatable=0;labelPosition=right;points=[];portConstraint=eastwest;" parent="Tv9C8EbDIbSl4ck7259P-9" vertex="1">
          <mxGeometry y="52" width="160" height="8" as="geometry" />
        </mxCell>
        <mxCell id="Tv9C8EbDIbSl4ck7259P-12" value="+ getTransactioncount(): int&#xa;+ calculatorDiscount(): float" style="text;strokeColor=none;fillColor=none;align=left;verticalAlign=top;spacingLeft=4;spacingRight=4;overflow=hidden;rotatable=0;points=[[0,0.5],[1,0.5]];portConstraint=eastwest;" parent="Tv9C8EbDIbSl4ck7259P-9" vertex="1">
          <mxGeometry y="60" width="160" height="40" as="geometry" />
        </mxCell>
        <mxCell id="Tv9C8EbDIbSl4ck7259P-13" value="other" style="swimlane;fontStyle=1;align=center;verticalAlign=top;childLayout=stackLayout;horizontal=1;startSize=26;horizontalStack=0;resizeParent=1;resizeParentMax=0;resizeLast=0;collapsible=1;marginBottom=0;" parent="1" vertex="1">
          <mxGeometry x="280" y="240" width="170" height="164" as="geometry" />
        </mxCell>
        <mxCell id="Tv9C8EbDIbSl4ck7259P-14" value="+ id: int&#xa;+ vendor: Vendor&#xa;+ date: String&#xa;+ ordrrdProduct: Product&#xa;+ orderQuantity: int&#xa;   amountPaid: float" style="text;strokeColor=none;fillColor=none;align=left;verticalAlign=top;spacingLeft=4;spacingRight=4;overflow=hidden;rotatable=0;points=[[0,0.5],[1,0.5]];portConstraint=eastwest;" parent="Tv9C8EbDIbSl4ck7259P-13" vertex="1">
          <mxGeometry y="26" width="170" height="104" as="geometry" />
        </mxCell>
        <mxCell id="Tv9C8EbDIbSl4ck7259P-15" value="" style="line;strokeWidth=1;fillColor=none;align=left;verticalAlign=middle;spacingTop=-1;spacingLeft=3;spacingRight=3;rotatable=0;labelPosition=right;points=[];portConstraint=eastwest;" parent="Tv9C8EbDIbSl4ck7259P-13" vertex="1">
          <mxGeometry y="130" width="170" height="8" as="geometry" />
        </mxCell>
        <mxCell id="Tv9C8EbDIbSl4ck7259P-16" value="-updateVendorCredit(): void" style="text;strokeColor=none;fillColor=none;align=left;verticalAlign=top;spacingLeft=4;spacingRight=4;overflow=hidden;rotatable=0;points=[[0,0.5],[1,0.5]];portConstraint=eastwest;" parent="Tv9C8EbDIbSl4ck7259P-13" vertex="1">
          <mxGeometry y="138" width="170" height="26" as="geometry" />
        </mxCell>
        <mxCell id="Tv9C8EbDIbSl4ck7259P-17" value="Vendor" style="swimlane;fontStyle=1;align=center;verticalAlign=top;childLayout=stackLayout;horizontal=1;startSize=26;horizontalStack=0;resizeParent=1;resizeParentMax=0;resizeLast=0;collapsible=1;marginBottom=0;" parent="1" vertex="1">
          <mxGeometry x="490" y="300" width="200" height="160" as="geometry" />
        </mxCell>
        <mxCell id="Tv9C8EbDIbSl4ck7259P-18" value="+ vendorName: String&#xa;+ credit: float&#xa;+ products: [0..100]&#xa;+ orders: order[0..100]" style="text;strokeColor=none;fillColor=none;align=left;verticalAlign=top;spacingLeft=4;spacingRight=4;overflow=hidden;rotatable=0;points=[[0,0.5],[1,0.5]];portConstraint=eastwest;" parent="Tv9C8EbDIbSl4ck7259P-17" vertex="1">
          <mxGeometry y="26" width="200" height="64" as="geometry" />
        </mxCell>
        <mxCell id="Tv9C8EbDIbSl4ck7259P-19" value="" style="line;strokeWidth=1;fillColor=none;align=left;verticalAlign=middle;spacingTop=-1;spacingLeft=3;spacingRight=3;rotatable=0;labelPosition=right;points=[];portConstraint=eastwest;" parent="Tv9C8EbDIbSl4ck7259P-17" vertex="1">
          <mxGeometry y="90" width="200" height="8" as="geometry" />
        </mxCell>
        <mxCell id="Tv9C8EbDIbSl4ck7259P-20" value="+ checkDue(): float&#xa;+ fetchproductById(id:int): Product&#xa;+ fetchProdutByteName&#xa;  (name: String): Product" style="text;strokeColor=none;fillColor=none;align=left;verticalAlign=top;spacingLeft=4;spacingRight=4;overflow=hidden;rotatable=0;points=[[0,0.5],[1,0.5]];portConstraint=eastwest;" parent="Tv9C8EbDIbSl4ck7259P-17" vertex="1">
          <mxGeometry y="98" width="200" height="62" as="geometry" />
        </mxCell>
        <mxCell id="Tv9C8EbDIbSl4ck7259P-21" value="" style="endArrow=diamondThin;endFill=0;endSize=24;html=1;exitX=1.013;exitY=0.78;exitDx=0;exitDy=0;exitPerimeter=0;entryX=0;entryY=0.516;entryDx=0;entryDy=0;entryPerimeter=0;" parent="1" source="Tv9C8EbDIbSl4ck7259P-8" target="Tv9C8EbDIbSl4ck7259P-20" edge="1">
          <mxGeometry width="160" relative="1" as="geometry">
            <mxPoint x="310" y="430" as="sourcePoint" />
            <mxPoint x="470" y="430" as="targetPoint" />
          </mxGeometry>
        </mxCell>
        <mxCell id="Tv9C8EbDIbSl4ck7259P-23" value="" style="endArrow=diamondThin;endFill=0;endSize=24;html=1;" parent="1" edge="1">
          <mxGeometry width="160" relative="1" as="geometry">
            <mxPoint x="210" y="330" as="sourcePoint" />
            <mxPoint x="280" y="330" as="targetPoint" />
          </mxGeometry>
        </mxCell>
        <mxCell id="Tv9C8EbDIbSl4ck7259P-24" value="" style="endArrow=none;html=1;" parent="1" edge="1">
          <mxGeometry width="50" height="50" relative="1" as="geometry">
            <mxPoint x="450" y="340" as="sourcePoint" />
            <mxPoint x="490" y="340" as="targetPoint" />
          </mxGeometry>
        </mxCell>
        <mxCell id="Tv9C8EbDIbSl4ck7259P-26" value="" style="endArrow=block;endSize=16;endFill=0;html=1;entryX=0.218;entryY=1.032;entryDx=0;entryDy=0;entryPerimeter=0;exitX=0.155;exitY=-0.019;exitDx=0;exitDy=0;exitPerimeter=0;" parent="1" source="Tv9C8EbDIbSl4ck7259P-17" target="Tv9C8EbDIbSl4ck7259P-4" edge="1">
          <mxGeometry x="0.125" y="30" width="160" relative="1" as="geometry">
            <mxPoint x="520" y="290" as="sourcePoint" />
            <mxPoint x="630" y="190" as="targetPoint" />
            <mxPoint as="offset" />
          </mxGeometry>
        </mxCell>
        <mxCell id="Tv9C8EbDIbSl4ck7259P-27" value="" style="endArrow=block;endSize=16;endFill=0;html=1;exitX=0.456;exitY=-0.01;exitDx=0;exitDy=0;exitPerimeter=0;entryX=0.341;entryY=1.065;entryDx=0;entryDy=0;entryPerimeter=0;" parent="1" source="Tv9C8EbDIbSl4ck7259P-9" target="Tv9C8EbDIbSl4ck7259P-4" edge="1">
          <mxGeometry x="0.125" y="30" width="160" relative="1" as="geometry">
            <mxPoint x="720" y="220" as="sourcePoint" />
            <mxPoint x="720" y="150" as="targetPoint" />
            <mxPoint as="offset" />
          </mxGeometry>
        </mxCell>
        <mxCell id="Tv9C8EbDIbSl4ck7259P-29" value="*" style="text;html=1;align=center;verticalAlign=middle;resizable=0;points=[];autosize=1;strokeColor=none;" parent="1" vertex="1">
          <mxGeometry x="210" y="410" width="20" height="20" as="geometry" />
        </mxCell>
        <mxCell id="Tv9C8EbDIbSl4ck7259P-30" value="*" style="text;html=1;align=center;verticalAlign=middle;resizable=0;points=[];autosize=1;strokeColor=none;" parent="1" vertex="1">
          <mxGeometry x="470" y="400" width="20" height="20" as="geometry" />
        </mxCell>
        <mxCell id="Tv9C8EbDIbSl4ck7259P-31" value="1" style="text;html=1;align=center;verticalAlign=middle;resizable=0;points=[];autosize=1;strokeColor=none;" parent="1" vertex="1">
          <mxGeometry x="210" y="310" width="20" height="20" as="geometry" />
        </mxCell>
        <mxCell id="Tv9C8EbDIbSl4ck7259P-32" value="1" style="text;html=1;align=center;verticalAlign=middle;resizable=0;points=[];autosize=1;strokeColor=none;" parent="1" vertex="1">
          <mxGeometry x="260" y="310" width="20" height="20" as="geometry" />
        </mxCell>
        <mxCell id="Tv9C8EbDIbSl4ck7259P-33" value="*" style="text;html=1;align=center;verticalAlign=middle;resizable=0;points=[];autosize=1;strokeColor=none;" parent="1" vertex="1">
          <mxGeometry x="450" y="320" width="20" height="20" as="geometry" />
        </mxCell>
        <mxCell id="Tv9C8EbDIbSl4ck7259P-34" value="1" style="text;html=1;align=center;verticalAlign=middle;resizable=0;points=[];autosize=1;strokeColor=none;" parent="1" vertex="1">
          <mxGeometry x="470" y="320" width="20" height="20" as="geometry" />
        </mxCell>
        <mxCell id="Tv9C8EbDIbSl4ck7259P-35" value="" style="endArrow=diamondThin;endFill=1;endSize=24;html=1;exitX=0;exitY=0.981;exitDx=0;exitDy=0;entryX=1.006;entryY=0.815;entryDx=0;entryDy=0;entryPerimeter=0;exitPerimeter=0;" parent="1" source="Tv9C8EbDIbSl4ck7259P-2" target="Pwe0kTY_ibTt96MhdFbI-14" edge="1">
          <mxGeometry width="160" relative="1" as="geometry">
            <mxPoint x="380" y="180" as="sourcePoint" />
            <mxPoint x="520" y="70" as="targetPoint" />
          </mxGeometry>
        </mxCell>
        <mxCell id="Tv9C8EbDIbSl4ck7259P-36" value="" style="endArrow=diamondThin;endFill=1;endSize=24;html=1;exitX=1;exitY=0.5;exitDx=0;exitDy=0;" parent="1" source="Pwe0kTY_ibTt96MhdFbI-10" edge="1">
          <mxGeometry width="160" relative="1" as="geometry">
            <mxPoint x="310" y="160" as="sourcePoint" />
            <mxPoint x="360" y="63" as="targetPoint" />
            <Array as="points">
              <mxPoint x="360" y="63" />
            </Array>
          </mxGeometry>
        </mxCell>
        <mxCell id="Tv9C8EbDIbSl4ck7259P-39" value="1" style="text;html=1;align=center;verticalAlign=middle;resizable=0;points=[];autosize=1;strokeColor=none;" parent="1" vertex="1">
          <mxGeometry x="340" y="40" width="20" height="20" as="geometry" />
        </mxCell>
        <mxCell id="Tv9C8EbDIbSl4ck7259P-40" value="1" style="text;html=1;align=center;verticalAlign=middle;resizable=0;points=[];autosize=1;strokeColor=none;" parent="1" vertex="1">
          <mxGeometry x="270" y="40" width="20" height="20" as="geometry" />
        </mxCell>
        <mxCell id="Tv9C8EbDIbSl4ck7259P-41" value="1" style="text;html=1;align=center;verticalAlign=middle;resizable=0;points=[];autosize=1;strokeColor=none;" parent="1" vertex="1">
          <mxGeometry x="520" y="50" width="20" height="20" as="geometry" />
        </mxCell>
        <mxCell id="Tv9C8EbDIbSl4ck7259P-42" value="1" style="text;html=1;align=center;verticalAlign=middle;resizable=0;points=[];autosize=1;strokeColor=none;" parent="1" vertex="1">
          <mxGeometry x="590" y="60" width="20" height="20" as="geometry" />
        </mxCell>
      </root>
    </mxGraphModel>
  </diagram>
</mxfile>
